/* XPM */
static char * top_left_inactive_xpm[] = {
"10 20 8 1",
" 	c None",
".	c #454545",
"+	c #2D2D2D",
"@	c #2C2C2C",
"#	c #2B2B2B",
"$	c #2A2A2A",
"%	c #292929",
"&	c #282828",
"     .....",
"   ..+++++",
"  .@@@@@@@",
" .@@@@@@@@",
" .@@@@@@@@",
"@@@@@@@@@@",
"##########",
"##########",
"##########",
"##########",
"$$$$$$$$$$",
"$$$$$$$$$$",
"$$$$$$$$$$",
"$$$$$$$$$$",
"%%%%%%%%%%",
"%%%%%%%%%%",
"%%%%%%%%%%",
"%%%%%%%%%%",
"&&&&&&&&&&",
"&&&&&&&&&&"};
