#define iconify_width 10
#define iconify_height 10
static unsigned char iconify_bits[] = {
   0x00, 0x00, 0x00, 0x00, 0x70, 0x00, 0xf8, 0x00, 0xfc, 0x01, 0xfc, 0x01,
   0xfc, 0x01, 0xf8, 0x00, 0x70, 0x00, 0x00, 0x00 };
